<svg width="24" height="24" viewBox="0 0 24 24" fill="none" xmlns="http://www.w3.org/2000/svg">
<path d="M15.4763 12.8887L16.9913 21.4147C17.0082 21.5151 16.9941 21.6183 16.9509 21.7104C16.9076 21.8026 16.8373 21.8794 16.7492 21.9305C16.6611 21.9816 16.5596 22.0046 16.4581 21.9964C16.3566 21.9882 16.26 21.9492 16.1813 21.8847L12.6013 19.1977C12.4284 19.0686 12.2185 18.9988 12.0028 18.9988C11.787 18.9988 11.5771 19.0686 11.4043 19.1977L7.81826 21.8837C7.73958 21.9481 7.64313 21.987 7.54176 21.9952C7.44039 22.0034 7.33894 21.9805 7.25093 21.9295C7.16292 21.8786 7.09254 21.802 7.04918 21.71C7.00582 21.618 6.99155 21.515 7.00826 21.4147L8.52226 12.8887" stroke="#00A63E" stroke-width="1.99981" stroke-linecap="round" stroke-linejoin="round"/>
<path d="M11.9989 13.9989C15.3123 13.9989 17.9984 11.3128 17.9984 7.99944C17.9984 4.68604 15.3123 2 11.9989 2C8.68555 2 5.99951 4.68604 5.99951 7.99944C5.99951 11.3128 8.68555 13.9989 11.9989 13.9989Z" stroke="#00A63E" stroke-width="1.99981" stroke-linecap="round" stroke-linejoin="round"/>
</svg>
