<svg width="28" height="28" viewBox="0 0 28 28" fill="none" xmlns="http://www.w3.org/2000/svg">
<path d="M18.0536 15.0359L19.8209 24.9813C19.8407 25.0984 19.8242 25.2188 19.7738 25.3263C19.7233 25.4338 19.6412 25.5233 19.5385 25.583C19.4358 25.6426 19.3173 25.6694 19.1989 25.6598C19.0805 25.6503 18.9679 25.6048 18.876 25.5295L14.7 22.3952C14.4984 22.2446 14.2535 22.1632 14.0019 22.1632C13.7502 22.1632 13.5053 22.2446 13.3037 22.3952L9.12075 25.5284C9.02897 25.6035 8.91645 25.6489 8.79821 25.6585C8.67997 25.668 8.56162 25.6413 8.45896 25.5819C8.3563 25.5224 8.2742 25.4331 8.22363 25.3258C8.17305 25.2185 8.1564 25.0983 8.1759 24.9813L9.94195 15.0359" stroke="white" stroke-width="2.33296" stroke-linecap="round" stroke-linejoin="round"/>
<path d="M13.9977 16.3308C17.863 16.3308 20.9965 13.1973 20.9965 9.33188C20.9965 5.46651 17.863 2.33301 13.9977 2.33301C10.1323 2.33301 6.99878 5.46651 6.99878 9.33188C6.99878 13.1973 10.1323 16.3308 13.9977 16.3308Z" stroke="white" stroke-width="2.33296" stroke-linecap="round" stroke-linejoin="round"/>
</svg>
