<svg width="24" height="24" viewBox="0 0 24 24" fill="none" xmlns="http://www.w3.org/2000/svg">
<path d="M11.9988 6.99951V20.9982" stroke="#FF6B35" stroke-width="1.99981" stroke-linecap="round" stroke-linejoin="round"/>
<path d="M2.99966 17.9981C2.73447 17.9981 2.48014 17.8928 2.29262 17.7052C2.1051 17.5177 1.99976 17.2634 1.99976 16.9982V3.99942C1.99976 3.73423 2.1051 3.4799 2.29262 3.29238C2.48014 3.10486 2.73447 2.99951 2.99966 2.99951H7.99919C9.05996 2.99951 10.0773 3.4209 10.8274 4.17097C11.5774 4.92105 11.9988 5.93837 11.9988 6.99914C11.9988 5.93837 12.4202 4.92105 13.1703 4.17097C13.9204 3.4209 14.9377 2.99951 15.9984 2.99951H20.998C21.2632 2.99951 21.5175 3.10486 21.705 3.29238C21.8925 3.4799 21.9979 3.73423 21.9979 3.99942V16.9982C21.9979 17.2634 21.8925 17.5177 21.705 17.7052C21.5175 17.8928 21.2632 17.9981 20.998 17.9981H14.9985C14.203 17.9981 13.44 18.3141 12.8774 18.8767C12.3149 19.4393 11.9988 20.2022 11.9988 20.9978C11.9988 20.2022 11.6828 19.4393 11.1202 18.8767C10.5577 18.3141 9.79467 17.9981 8.9991 17.9981H2.99966Z" stroke="#FF6B35" stroke-width="1.99981" stroke-linecap="round" stroke-linejoin="round"/>
</svg>
