<svg width="28" height="28" viewBox="0 0 28 28" fill="none" xmlns="http://www.w3.org/2000/svg">
<path d="M13.9978 25.6626C20.4401 25.6626 25.6626 20.4401 25.6626 13.9978C25.6626 7.55551 20.4401 2.33301 13.9978 2.33301C7.55551 2.33301 2.33301 7.55551 2.33301 13.9978C2.33301 20.4401 7.55551 25.6626 13.9978 25.6626Z" stroke="#FF6B35" stroke-width="2.33296" stroke-linecap="round" stroke-linejoin="round"/>
<path d="M13.9977 20.9966C17.863 20.9966 20.9965 17.8631 20.9965 13.9978C20.9965 10.1324 17.863 6.9989 13.9977 6.9989C10.1323 6.9989 6.99878 10.1324 6.99878 13.9978C6.99878 17.8631 10.1323 20.9966 13.9977 20.9966Z" stroke="#FF6B35" stroke-width="2.33296" stroke-linecap="round" stroke-linejoin="round"/>
<path d="M13.9978 16.3307C15.2862 16.3307 16.3307 15.2862 16.3307 13.9978C16.3307 12.7093 15.2862 11.6648 13.9978 11.6648C12.7093 11.6648 11.6648 12.7093 11.6648 13.9978C11.6648 15.2862 12.7093 16.3307 13.9978 16.3307Z" stroke="#FF6B35" stroke-width="2.33296" stroke-linecap="round" stroke-linejoin="round"/>
</svg>
