<svg width="24" height="24" viewBox="0 0 24 24" fill="none" xmlns="http://www.w3.org/2000/svg">
<path d="M11.9991 21.9981C17.5214 21.9981 21.9981 17.5214 21.9981 11.9991C21.9981 6.47673 17.5214 2 11.9991 2C6.47673 2 2 6.47673 2 11.9991C2 17.5214 6.47673 21.9981 11.9991 21.9981Z" stroke="#0E2A47" stroke-width="1.99981" stroke-linecap="round" stroke-linejoin="round"/>
<path d="M11.9989 17.9984C15.3123 17.9984 17.9984 15.3123 17.9984 11.9989C17.9984 8.68555 15.3123 5.99951 11.9989 5.99951C8.68555 5.99951 5.99951 8.68555 5.99951 11.9989C5.99951 15.3123 8.68555 17.9984 11.9989 17.9984Z" stroke="#0E2A47" stroke-width="1.99981" stroke-linecap="round" stroke-linejoin="round"/>
<path d="M11.999 13.999C13.1036 13.999 13.999 13.1036 13.999 11.999C13.999 10.8945 13.1036 9.99902 11.999 9.99902C10.8945 9.99902 9.99902 10.8945 9.99902 11.999C9.99902 13.1036 10.8945 13.999 11.999 13.999Z" stroke="#0E2A47" stroke-width="1.99981" stroke-linecap="round" stroke-linejoin="round"/>
</svg>
