<svg width="28" height="28" viewBox="0 0 28 28" fill="none" xmlns="http://www.w3.org/2000/svg">
<path d="M2.40519 14.4037C2.30797 14.1418 2.30797 13.8537 2.40519 13.5918C3.35202 11.296 4.95921 9.33306 7.02301 7.95178C9.08681 6.57051 11.5143 5.83313 13.9977 5.83313C16.481 5.83313 18.9085 6.57051 20.9723 7.95178C23.0361 9.33306 24.6433 11.296 25.5901 13.5918C25.6873 13.8537 25.6873 14.1418 25.5901 14.4037C24.6433 16.6995 23.0361 18.6625 20.9723 20.0437C18.9085 21.425 16.481 22.1624 13.9977 22.1624C11.5143 22.1624 9.08681 21.425 7.02301 20.0437C4.95921 18.6625 3.35202 16.6995 2.40519 14.4037Z" stroke="white" stroke-width="2.33296" stroke-linecap="round" stroke-linejoin="round"/>
<path d="M13.9977 17.4972C15.9304 17.4972 17.4972 15.9304 17.4972 13.9977C17.4972 12.065 15.9304 10.4983 13.9977 10.4983C12.065 10.4983 10.4983 12.065 10.4983 13.9977C10.4983 15.9304 12.065 17.4972 13.9977 17.4972Z" stroke="white" stroke-width="2.33296" stroke-linecap="round" stroke-linejoin="round"/>
</svg>
