<svg width="40" height="40" viewBox="0 0 40 40" fill="none" xmlns="http://www.w3.org/2000/svg">
<path d="M3.33325 33.3335C3.33325 34.2176 3.68444 35.0654 4.30956 35.6905C4.93468 36.3156 5.78253 36.6668 6.66659 36.6668H33.3333C34.2173 36.6668 35.0652 36.3156 35.6903 35.6905C36.3154 35.0654 36.6666 34.2176 36.6666 33.3335V13.3335L24.9999 21.6668V13.3335L13.3333 21.6668V6.66683C13.3333 5.78277 12.9821 4.93493 12.3569 4.30981C11.7318 3.68469 10.884 3.3335 9.99992 3.3335H6.66659C5.78253 3.3335 4.93468 3.68469 4.30956 4.30981C3.68444 4.93493 3.33325 5.78277 3.33325 6.66683V33.3335Z" stroke="#FF6B35" stroke-width="3.33333" stroke-linecap="round" stroke-linejoin="round"/>
<path d="M28.3333 30H29.9999" stroke="#FF6B35" stroke-width="3.33333" stroke-linecap="round" stroke-linejoin="round"/>
<path d="M20 30H21.6667" stroke="#FF6B35" stroke-width="3.33333" stroke-linecap="round" stroke-linejoin="round"/>
<path d="M11.6667 30H13.3334" stroke="#FF6B35" stroke-width="3.33333" stroke-linecap="round" stroke-linejoin="round"/>
</svg>
