<svg width="23" height="23" viewBox="0 0 23 23" fill="none" xmlns="http://www.w3.org/2000/svg">
<path d="M8 1H2.16667C1.85725 1 1.5605 1.12292 1.34171 1.34171C1.12292 1.5605 1 1.85725 1 2.16667V8C1 8.30942 1.12292 8.60616 1.34171 8.82496C1.5605 9.04375 1.85725 9.16667 2.16667 9.16667H8C8.30942 9.16667 8.60616 9.04375 8.82496 8.82496C9.04375 8.60616 9.16667 8.30942 9.16667 8V2.16667C9.16667 1.85725 9.04375 1.5605 8.82496 1.34171C8.60616 1.12292 8.30942 1 8 1ZM8 13.8333H2.16667C1.85725 13.8333 1.5605 13.9562 1.34171 14.175C1.12292 14.3938 1 14.6906 1 15V20.8333C1 21.1428 1.12292 21.4395 1.34171 21.6583C1.5605 21.8771 1.85725 22 2.16667 22H8C8.30942 22 8.60616 21.8771 8.82496 21.6583C9.04375 21.4395 9.16667 21.1428 9.16667 20.8333V15C9.16667 14.6906 9.04375 14.3938 8.82496 14.175C8.60616 13.9562 8.30942 13.8333 8 13.8333ZM17.9167 9.16667C18.4529 9.16667 18.9839 9.06105 19.4793 8.85584C19.9747 8.65063 20.4248 8.34986 20.804 7.97069C21.1832 7.59151 21.484 7.14137 21.6892 6.64596C21.8944 6.15054 22 5.61956 22 5.08333C22 4.5471 21.8944 4.01612 21.6892 3.52071C21.484 3.0253 21.1832 2.57515 20.804 2.19598C20.4248 1.81681 19.9747 1.51603 19.4793 1.31083C18.9839 1.10562 18.4529 1 17.9167 1C16.8337 1 15.7951 1.43021 15.0293 2.19598C14.2635 2.96175 13.8333 4.00037 13.8333 5.08333C13.8333 6.1663 14.2635 7.20491 15.0293 7.97069C15.7951 8.73646 16.8337 9.16667 17.9167 9.16667ZM20.8333 13.8333H15C14.6906 13.8333 14.3938 13.9562 14.175 14.175C13.9562 14.3938 13.8333 14.6906 13.8333 15V20.8333C13.8333 21.1428 13.9562 21.4395 14.175 21.6583C14.3938 21.8771 14.6906 22 15 22H20.8333C21.1428 22 21.4395 21.8771 21.6583 21.6583C21.8771 21.4395 22 21.1428 22 20.8333V15C22 14.6906 21.8771 14.3938 21.6583 14.175C21.4395 13.9562 21.1428 13.8333 20.8333 13.8333Z" stroke="white" stroke-width="2" stroke-linejoin="round"/>
</svg>
