<svg width="28" height="28" viewBox="0 0 28 28" fill="none" xmlns="http://www.w3.org/2000/svg">
<path d="M14.9659 2.5429C14.6619 2.40426 14.3317 2.33252 13.9977 2.33252C13.6636 2.33252 13.3334 2.40426 13.0295 2.5429L3.03277 7.09217C2.82578 7.18344 2.64979 7.33293 2.52624 7.52243C2.40269 7.71194 2.33691 7.93328 2.33691 8.1595C2.33691 8.38572 2.40269 8.60706 2.52624 8.79656C2.64979 8.98607 2.82578 9.13556 3.03277 9.22683L13.0412 13.7878C13.3451 13.9264 13.6753 13.9981 14.0093 13.9981C14.3434 13.9981 14.6736 13.9264 14.9775 13.7878L24.9859 9.23849C25.1929 9.14722 25.3689 8.99773 25.4924 8.80823C25.616 8.61872 25.6818 8.39738 25.6818 8.17116C25.6818 7.94494 25.616 7.7236 25.4924 7.5341C25.3689 7.34459 25.1929 7.19511 24.9859 7.10384L14.9659 2.5429Z" stroke="#0E2A47" stroke-width="2.33296" stroke-linecap="round" stroke-linejoin="round"/>
<path d="M2.33301 13.9978C2.33246 14.2209 2.3959 14.4395 2.51582 14.6276C2.63573 14.8158 2.80709 14.9656 3.00957 15.0593L13.0413 19.6202C13.3436 19.7571 13.6717 19.828 14.0036 19.828C14.3355 19.828 14.6636 19.7571 14.966 19.6202L24.9744 15.071C25.1808 14.9782 25.3559 14.8273 25.4781 14.6367C25.6003 14.4462 25.6644 14.2242 25.6626 13.9978" stroke="#0E2A47" stroke-width="2.33296" stroke-linecap="round" stroke-linejoin="round"/>
<path d="M2.33301 19.8301C2.33246 20.0532 2.3959 20.2718 2.51582 20.4599C2.63573 20.6481 2.80709 20.7979 3.00957 20.8916L13.0413 25.4525C13.3436 25.5894 13.6717 25.6602 14.0036 25.6602C14.3355 25.6602 14.6636 25.5894 14.966 25.4525L24.9744 20.9032C25.1808 20.8104 25.3559 20.6596 25.4781 20.469C25.6003 20.2784 25.6644 20.0564 25.6626 19.8301" stroke="#0E2A47" stroke-width="2.33296" stroke-linecap="round" stroke-linejoin="round"/>
</svg>
