<svg width="28" height="28" viewBox="0 0 28 28" fill="none" xmlns="http://www.w3.org/2000/svg">
<path d="M12.8312 23.3296C10.783 23.3358 8.80716 22.572 7.29571 21.1896C5.78426 19.8073 4.84756 17.9073 4.67139 15.8666C4.49521 13.8259 5.09244 11.7936 6.3446 10.1726C7.59677 8.55165 9.41242 7.4605 11.4314 7.11557C18.0804 5.83244 19.8301 5.22588 22.163 2.33301C23.3295 4.66597 24.496 7.20889 24.496 11.6648C24.496 18.0805 18.9202 23.3296 12.8312 23.3296Z" stroke="white" stroke-width="2.33296" stroke-linecap="round" stroke-linejoin="round"/>
<path d="M2.33301 24.4959C2.33301 20.9964 4.49099 18.2435 8.25872 17.497C11.0816 16.9371 13.9978 15.164 15.1643 13.9976" stroke="white" stroke-width="2.33296" stroke-linecap="round" stroke-linejoin="round"/>
</svg>
