<svg width="28" height="28" viewBox="0 0 28 28" fill="none" xmlns="http://www.w3.org/2000/svg">
<path d="M4.66582 16.3306C4.44508 16.3314 4.22866 16.2695 4.0417 16.1521C3.85474 16.0348 3.70491 15.8668 3.60963 15.6677C3.51435 15.4685 3.47752 15.2465 3.50342 15.0273C3.52932 14.808 3.6169 14.6007 3.75596 14.4293L15.3041 2.53117C15.3907 2.43118 15.5088 2.36362 15.6389 2.33956C15.769 2.3155 15.9034 2.33639 16.02 2.39878C16.1367 2.46118 16.2286 2.56138 16.2808 2.68294C16.333 2.8045 16.3424 2.9402 16.3073 3.06775L14.0676 10.09C14.0016 10.2667 13.9794 10.4568 14.003 10.644C14.0266 10.8312 14.0952 11.0099 14.2031 11.1648C14.3109 11.3196 14.4546 11.446 14.622 11.5331C14.7894 11.6202 14.9754 11.6653 15.1641 11.6647H23.3295C23.5502 11.664 23.7666 11.7258 23.9536 11.8432C24.1406 11.9606 24.2904 12.1285 24.3857 12.3277C24.481 12.5268 24.5178 12.7488 24.4919 12.9681C24.466 13.1873 24.3784 13.3946 24.2393 13.5661L12.6912 25.4641C12.6046 25.5641 12.4865 25.6317 12.3564 25.6558C12.2263 25.6798 12.0919 25.6589 11.9753 25.5965C11.8586 25.5341 11.7667 25.4339 11.7145 25.3124C11.6623 25.1908 11.6529 25.0551 11.688 24.9276L13.9277 17.9054C13.9937 17.7286 14.0159 17.5385 13.9923 17.3513C13.9687 17.1641 13.9001 16.9854 13.7922 16.8305C13.6844 16.6757 13.5407 16.5493 13.3733 16.4622C13.2059 16.3752 13.0199 16.33 12.8312 16.3306H4.66582Z" stroke="#0E2A47" stroke-width="2.33296" stroke-linecap="round" stroke-linejoin="round"/>
</svg>
