<svg width="24" height="24" viewBox="0 0 24 24" fill="none" xmlns="http://www.w3.org/2000/svg">
<path d="M19.998 9.99925C19.998 14.9918 14.4595 20.1913 12.5997 21.7971C12.4264 21.9274 12.2155 21.9979 11.9988 21.9979C11.782 21.9979 11.5711 21.9274 11.3978 21.7971C9.53799 20.1913 3.99951 14.9918 3.99951 9.99925C3.99951 7.87772 4.84229 5.84308 6.34244 4.34293C7.84259 2.84278 9.87723 2 11.9988 2C14.1203 2 16.1549 2.84278 17.6551 4.34293C19.1552 5.84308 19.998 7.87772 19.998 9.99925Z" stroke="#0E2A47" stroke-width="1.99981" stroke-linecap="round" stroke-linejoin="round"/>
<path d="M11.9993 12.9995C13.6561 12.9995 14.9993 11.6564 14.9993 9.99951C14.9993 8.34266 13.6561 6.99951 11.9993 6.99951C10.3424 6.99951 8.99927 8.34266 8.99927 9.99951C8.99927 11.6564 10.3424 12.9995 11.9993 12.9995Z" stroke="#0E2A47" stroke-width="1.99981" stroke-linecap="round" stroke-linejoin="round"/>
</svg>
