<svg width="28" height="28" viewBox="0 0 28 28" fill="none" xmlns="http://www.w3.org/2000/svg">
<path d="M17.0561 20.8765L4.59814 17.4785" stroke="#0E2A47" stroke-width="2.33296" stroke-linecap="round" stroke-linejoin="round"/>
<path d="M21.4352 3.05849C21.6651 2.82856 21.9381 2.64617 22.2385 2.52174C22.5389 2.3973 22.8609 2.33325 23.1861 2.33325C23.5112 2.33325 23.8332 2.3973 24.1336 2.52174C24.4341 2.64617 24.707 2.82856 24.937 3.05849C25.1669 3.28842 25.3493 3.56139 25.4737 3.86181C25.5982 4.16222 25.6622 4.48421 25.6622 4.80938C25.6622 5.13455 25.5982 5.45653 25.4737 5.75695C25.3493 6.05737 25.1669 6.33033 24.937 6.56026L20.2501 11.2483C20.1407 11.3577 20.0793 11.506 20.0793 11.6607C20.0793 11.8153 20.1407 11.9637 20.2501 12.073L21.3512 13.1742C21.8783 13.7014 22.1744 14.4164 22.1744 15.1619C22.1744 15.9074 21.8783 16.6224 21.3512 17.1496L20.2501 18.2507C20.1407 18.3601 19.9924 18.4215 19.8377 18.4215C19.683 18.4215 19.5347 18.3601 19.4253 18.2507L9.74474 8.57127C9.6354 8.4619 9.57397 8.31358 9.57397 8.15892C9.57397 8.00427 9.6354 7.85595 9.74474 7.74657L10.8459 6.64542C11.3731 6.1183 12.0881 5.82218 12.8336 5.82218C13.5791 5.82218 14.2941 6.1183 14.8213 6.64542L15.9224 7.74657C16.0318 7.85591 16.1801 7.91734 16.3348 7.91734C16.4894 7.91734 16.6377 7.85591 16.7471 7.74657L21.4352 3.05849Z" stroke="#0E2A47" stroke-width="2.33296" stroke-linecap="round" stroke-linejoin="round"/>
<path d="M10.4983 9.33179C8.39402 12.4929 5.86743 13.3678 2.81942 13.937C2.7183 13.9555 2.62375 14 2.54507 14.0661C2.46639 14.1323 2.40631 14.2178 2.37075 14.3142C2.33519 14.4107 2.32538 14.5147 2.34228 14.6161C2.35918 14.7175 2.40222 14.8127 2.46714 14.8924L11.0058 25.2542C11.1792 25.4384 11.4078 25.5612 11.6571 25.6042C11.9065 25.6471 12.163 25.6078 12.388 25.4922C14.8551 23.802 18.6637 19.5875 18.6637 17.4971" stroke="#0E2A47" stroke-width="2.33296" stroke-linecap="round" stroke-linejoin="round"/>
</svg>
