<svg width="16" height="16" viewBox="0 0 16 16" fill="none" xmlns="http://www.w3.org/2000/svg">
<g clip-path="url(#clip0_283_4362)">
<path d="M14.6585 11.2736V13.2725C14.6593 13.4581 14.6212 13.6418 14.5469 13.8118C14.4726 13.9818 14.3635 14.1344 14.2268 14.2599C14.0901 14.3853 13.9286 14.4808 13.7528 14.5403C13.5771 14.5997 13.3908 14.6218 13.206 14.6051C11.1557 14.3823 9.18625 13.6817 7.4559 12.5596C5.84602 11.5366 4.48113 10.1717 3.45815 8.56184C2.3321 6.82363 1.63134 4.8446 1.41263 2.7851C1.39598 2.60085 1.41788 2.41515 1.47693 2.23982C1.53598 2.0645 1.63089 1.90339 1.75562 1.76675C1.88035 1.63012 2.03216 1.52095 2.20138 1.4462C2.37061 1.37145 2.55355 1.33276 2.73855 1.33258H4.73743C5.06078 1.3294 5.37426 1.44391 5.61944 1.65476C5.86461 1.86561 6.02475 2.15841 6.07001 2.4786C6.15438 3.11829 6.31084 3.74637 6.53642 4.35088C6.62606 4.58936 6.64546 4.84854 6.59232 5.09771C6.53918 5.34688 6.41572 5.5756 6.23658 5.75676L5.39039 6.60295C6.3389 8.27104 7.72005 9.65219 9.38814 10.6007L10.2343 9.7545C10.4155 9.57536 10.6442 9.45191 10.8934 9.39877C11.1425 9.34563 11.4017 9.36503 11.6402 9.45467C12.2447 9.68025 12.8728 9.83671 13.5125 9.92108C13.8361 9.96674 14.1317 10.1298 14.343 10.3791C14.5543 10.6285 14.6666 10.9469 14.6585 11.2736Z" stroke="white" stroke-width="1.33258" stroke-linecap="round" stroke-linejoin="round"/>
</g>
<defs>
<clipPath id="clip0_283_4362">
<rect width="15.991" height="15.991" fill="white"/>
</clipPath>
</defs>
</svg>
