<svg width="24" height="24" viewBox="0 0 24 24" fill="none" xmlns="http://www.w3.org/2000/svg">
<path d="M21.9981 16.9187V19.9184C21.9992 20.1969 21.9422 20.4725 21.8306 20.7277C21.719 20.9828 21.5554 21.2119 21.3502 21.4001C21.145 21.5884 20.9027 21.7317 20.6389 21.8209C20.3751 21.9102 20.0956 21.9433 19.8183 21.9182C16.7414 21.5839 13.7858 20.5325 11.1891 18.8485C8.77314 17.3133 6.72484 15.265 5.18964 12.8491C3.49978 10.2405 2.44814 7.2706 2.11993 4.17989C2.09495 3.90339 2.12781 3.6247 2.21642 3.36159C2.30504 3.09848 2.44747 2.85671 2.63465 2.65166C2.82183 2.44661 3.04965 2.28278 3.30361 2.1706C3.55757 2.05843 3.83211 2.00036 4.10975 2.0001H7.10946C7.59472 1.99532 8.06517 2.16716 8.4331 2.48358C8.80104 2.80001 9.04136 3.23943 9.10928 3.71994C9.23589 4.67991 9.47069 5.62248 9.80921 6.52967C9.94374 6.88756 9.97286 7.27652 9.89311 7.65045C9.81336 8.02438 9.62809 8.36761 9.35925 8.63947L8.08937 9.90935C9.51279 12.4127 11.5855 14.4854 14.0888 15.9088L15.3587 14.6389C15.6306 14.3701 15.9738 14.1848 16.3477 14.1051C16.7216 14.0253 17.1106 14.0544 17.4685 14.189C18.3757 14.5275 19.3183 14.7623 20.2782 14.8889C20.7639 14.9574 21.2075 15.2021 21.5246 15.5763C21.8417 15.9506 22.0102 16.4283 21.9981 16.9187Z" stroke="white" stroke-width="1.99981" stroke-linecap="round" stroke-linejoin="round"/>
</svg>
