<svg width="48" height="48" viewBox="0 0 48 48" fill="none" xmlns="http://www.w3.org/2000/svg">
<path d="M31.9969 5.99951C30.9362 5.99951 29.9189 6.4209 29.1688 7.17097C28.4187 7.92105 27.9973 8.93837 27.9973 9.99914V21.998C27.9973 23.0588 28.4187 24.0761 29.1688 24.8262C29.9189 25.5762 30.9362 25.9976 31.9969 25.9976C32.5273 25.9976 33.036 26.2083 33.411 26.5834C33.7861 26.9584 33.9968 27.4671 33.9968 27.9974V29.9973C33.9968 31.058 33.5754 32.0753 32.8253 32.8254C32.0752 33.5755 31.0579 33.9969 29.9971 33.9969C29.4667 33.9969 28.9581 34.2076 28.583 34.5826C28.208 34.9577 27.9973 35.4663 27.9973 35.9967V39.9963C27.9973 40.5267 28.208 41.0354 28.583 41.4104C28.9581 41.7854 29.4667 41.9961 29.9971 41.9961C33.1794 41.9961 36.2314 40.732 38.4816 38.4817C40.7318 36.2315 41.996 33.1796 41.996 29.9973V9.99914C41.996 8.93837 41.5746 7.92105 40.8245 7.17097C40.0745 6.4209 39.0571 5.99951 37.9964 5.99951H31.9969Z" stroke="#FF6B35" stroke-width="3.99962" stroke-linecap="round" stroke-linejoin="round"/>
<path d="M9.99914 5.99951C8.93837 5.99951 7.92105 6.4209 7.17097 7.17097C6.4209 7.92105 5.99951 8.93837 5.99951 9.99914V21.998C5.99951 23.0588 6.4209 24.0761 7.17097 24.8262C7.92105 25.5762 8.93837 25.9976 9.99914 25.9976C10.5295 25.9976 11.0382 26.2083 11.4132 26.5834C11.7883 26.9584 11.9989 27.4671 11.9989 27.9974V29.9973C11.9989 31.058 11.5776 32.0753 10.8275 32.8254C10.0774 33.5755 9.06009 33.9969 7.99932 33.9969C7.46894 33.9969 6.96028 34.2076 6.58524 34.5826C6.21021 34.9577 5.99951 35.4663 5.99951 35.9967V39.9963C5.99951 40.5267 6.21021 41.0354 6.58524 41.4104C6.96028 41.7854 7.46894 41.9961 7.99932 41.9961C11.1816 41.9961 14.2336 40.732 16.4838 38.4817C18.734 36.2315 19.9982 33.1796 19.9982 29.9973V9.99914C19.9982 8.93837 19.5768 7.92105 18.8267 7.17097C18.0767 6.4209 17.0593 5.99951 15.9986 5.99951H9.99914Z" stroke="#FF6B35" stroke-width="3.99962" stroke-linecap="round" stroke-linejoin="round"/>
</svg>
