<svg width="20" height="20" viewBox="0 0 20 20" fill="none" xmlns="http://www.w3.org/2000/svg">
<path d="M16.6666 10.8335C16.6666 15.0002 13.7499 17.0835 10.2833 18.2919C10.1017 18.3534 9.90453 18.3505 9.72492 18.2835C6.24992 17.0835 3.33325 15.0002 3.33325 10.8335V5.00021C3.33325 4.7792 3.42105 4.56724 3.57733 4.41096C3.73361 4.25468 3.94557 4.16688 4.16659 4.16688C5.83325 4.16688 7.91658 3.16688 9.36658 1.90021C9.54313 1.74938 9.76771 1.6665 9.99992 1.6665C10.2321 1.6665 10.4567 1.74938 10.6333 1.90021C12.0916 3.17521 14.1666 4.16688 15.8333 4.16688C16.0543 4.16688 16.2662 4.25468 16.4225 4.41096C16.5788 4.56724 16.6666 4.7792 16.6666 5.00021V10.8335Z" stroke="white" stroke-width="1.66667" stroke-linecap="round" stroke-linejoin="round"/>
</svg>
