<svg width="28" height="28" viewBox="0 0 28 28" fill="none" xmlns="http://www.w3.org/2000/svg">
<path d="M23.3297 15.1643C23.3297 20.9967 19.247 23.9129 14.3945 25.6043C14.1403 25.6904 13.8643 25.6863 13.6129 25.5926C8.74869 23.9129 4.66602 20.9967 4.66602 15.1643V6.99896C4.66602 6.68959 4.78891 6.39289 5.00767 6.17414C5.22643 5.95538 5.52313 5.83248 5.83249 5.83248C8.16545 5.83248 11.0816 4.43271 13.1113 2.65966C13.3584 2.44852 13.6728 2.33252 13.9978 2.33252C14.3229 2.33252 14.6372 2.44852 14.8844 2.65966C16.9257 4.44437 19.8302 5.83248 22.1632 5.83248C22.4726 5.83248 22.7693 5.95538 22.988 6.17414C23.2068 6.39289 23.3297 6.68959 23.3297 6.99896V15.1643Z" stroke="#0E2A47" stroke-width="2.33296" stroke-linecap="round" stroke-linejoin="round"/>
</svg>
