<svg width="24" height="28" viewBox="0 0 24 28" fill="none" xmlns="http://www.w3.org/2000/svg">
<path d="M12 0L0 4V16C0 22.6281 5.37187 28 12 28C18.6281 28 24 22.6281 24 16V4L12 0ZM21.75 16C21.75 21.3844 17.3844 25.75 12 25.75C6.61562 25.75 2.25 21.3844 2.25 16V5.6875L12 2.25L21.75 5.6875V16Z" fill="white"/>
<path d="M7.82566 12.8469C7.72139 12.7421 7.59745 12.659 7.46097 12.6023C7.32448 12.5456 7.17814 12.5164 7.03034 12.5164C6.88255 12.5164 6.7362 12.5456 6.59972 12.6023C6.46324 12.659 6.3393 12.7421 6.23503 12.8469C6.13029 12.9511 6.04717 13.0751 5.99045 13.2116C5.93374 13.348 5.90454 13.4944 5.90454 13.6422C5.90454 13.79 5.93374 13.9363 5.99045 14.0728C6.04717 14.2093 6.13029 14.3332 6.23503 14.4375L10.2788 18.4813L10.3444 18.5469C10.443 18.6457 10.5602 18.7241 10.6891 18.7776C10.8181 18.8311 10.9564 18.8586 11.096 18.8586C11.2356 18.8586 11.3738 18.8311 11.5028 18.7776C11.6318 18.7241 11.7489 18.6457 11.8475 18.5469L18.8319 11.5625C18.9307 11.4639 19.0091 11.3467 19.0626 11.2178C19.1161 11.0888 19.1436 10.9506 19.1436 10.8109C19.1436 10.6713 19.1161 10.5331 19.0626 10.4041C19.0091 10.2752 18.9307 10.158 18.8319 10.0594L18.7444 9.97188C18.6458 9.87306 18.5286 9.79467 18.3997 9.74118C18.2707 9.68769 18.1325 9.66016 17.9928 9.66016C17.8532 9.66016 17.715 9.68769 17.586 9.74118C17.4571 9.79467 17.3399 9.87306 17.2413 9.97188L11.0944 16.1156L7.82566 12.8469Z" fill="white"/>
</svg>
