<svg width="24" height="24" viewBox="0 0 24 24" fill="none" xmlns="http://www.w3.org/2000/svg">
<path d="M19.998 12.9989C19.998 17.9985 16.4983 20.4982 12.3387 21.9481C12.1209 22.0219 11.8843 22.0184 11.6688 21.9381C7.49918 20.4982 3.99951 17.9985 3.99951 12.9989V5.99959C3.99951 5.73439 4.10486 5.48006 4.29238 5.29255C4.4799 5.10503 4.73423 4.99968 4.99942 4.99968C6.99923 4.99968 9.499 3.79979 11.2388 2.27993C11.4507 2.09895 11.7201 1.99951 11.9988 1.99951C12.2774 1.99951 12.5469 2.09895 12.7587 2.27993C14.5085 3.80979 16.9983 4.99968 18.9981 4.99968C19.2633 4.99968 19.5176 5.10503 19.7051 5.29255C19.8927 5.48006 19.998 5.73439 19.998 5.99959V12.9989Z" stroke="#0E2A47" stroke-width="1.99981" stroke-linecap="round" stroke-linejoin="round"/>
</svg>
