<svg width="28" height="28" viewBox="0 0 28 28" fill="none" xmlns="http://www.w3.org/2000/svg">
<path d="M13.9978 23.3297C16.4728 23.3297 18.8464 22.3465 20.5964 20.5964C22.3465 18.8464 23.3297 16.4728 23.3297 13.9978C23.3297 11.5229 22.3465 9.1493 20.5964 7.39925C18.8464 5.64919 16.4728 4.66602 13.9978 4.66602C11.5229 4.66602 9.1493 5.64919 7.39925 7.39925C5.64919 9.1493 4.66602 11.5229 4.66602 13.9978C4.66602 16.4728 5.64919 18.8464 7.39925 20.5964C9.1493 22.3465 11.5229 23.3297 13.9978 23.3297Z" stroke="#0E2A47" stroke-width="2.33296" stroke-linecap="round" stroke-linejoin="round"/>
<path d="M13.9978 16.3307C14.6165 16.3307 15.2099 16.0849 15.6474 15.6474C16.0849 15.2099 16.3307 14.6165 16.3307 13.9978C16.3307 13.379 16.0849 12.7856 15.6474 12.3481C15.2099 11.9106 14.6165 11.6648 13.9978 11.6648C13.379 11.6648 12.7856 11.9106 12.3481 12.3481C11.9106 12.7856 11.6648 13.379 11.6648 13.9978C11.6648 14.6165 11.9106 15.2099 12.3481 15.6474C12.7856 16.0849 13.379 16.3307 13.9978 16.3307Z" stroke="#0E2A47" stroke-width="2.33296" stroke-linecap="round" stroke-linejoin="round"/>
<path d="M13.9978 2.33301V4.66597" stroke="#0E2A47" stroke-width="2.33296" stroke-linecap="round" stroke-linejoin="round"/>
<path d="M13.9978 25.6625V23.3296" stroke="#0E2A47" stroke-width="2.33296" stroke-linecap="round" stroke-linejoin="round"/>
<path d="M19.8301 24.0996L18.6636 22.0815" stroke="#0E2A47" stroke-width="2.33296" stroke-linecap="round" stroke-linejoin="round"/>
<path d="M12.8312 11.9797L8.16528 3.896" stroke="#0E2A47" stroke-width="2.33296" stroke-linecap="round" stroke-linejoin="round"/>
<path d="M24.0996 19.8301L22.0815 18.6636" stroke="#0E2A47" stroke-width="2.33296" stroke-linecap="round" stroke-linejoin="round"/>
<path d="M3.896 8.16528L5.91401 9.33176" stroke="#0E2A47" stroke-width="2.33296" stroke-linecap="round" stroke-linejoin="round"/>
<path d="M16.3308 13.9978H25.6626" stroke="#0E2A47" stroke-width="2.33296" stroke-linecap="round" stroke-linejoin="round"/>
<path d="M2.33301 13.9978H4.66597" stroke="#0E2A47" stroke-width="2.33296" stroke-linecap="round" stroke-linejoin="round"/>
<path d="M24.0996 8.16528L22.0815 9.33176" stroke="#0E2A47" stroke-width="2.33296" stroke-linecap="round" stroke-linejoin="round"/>
<path d="M3.896 19.8301L5.91401 18.6636" stroke="#0E2A47" stroke-width="2.33296" stroke-linecap="round" stroke-linejoin="round"/>
<path d="M19.8301 3.896L18.6636 5.91401" stroke="#0E2A47" stroke-width="2.33296" stroke-linecap="round" stroke-linejoin="round"/>
<path d="M12.8312 16.0159L8.16528 24.0996" stroke="#0E2A47" stroke-width="2.33296" stroke-linecap="round" stroke-linejoin="round"/>
</svg>
