<svg width="23" height="23" viewBox="0 0 23 23" fill="none" xmlns="http://www.w3.org/2000/svg">
<path d="M17.3026 20.2462C19.3504 18.889 20.8573 16.856 21.5607 14.5015C22.264 12.1471 22.1193 9.62032 21.1517 7.36161C20.1841 5.10291 18.455 3.25544 16.2656 2.14113C14.0762 1.02683 11.5654 0.716338 9.17074 1.26376M17.3037 17.0233V20.2451L20.8886 20.2462M5.67194 2.77077C3.63004 4.13262 2.12993 6.16742 1.43255 8.52125C0.73517 10.8751 0.884642 13.399 1.85497 15.654C2.82529 17.909 4.55507 19.7523 6.74343 20.8635C8.93179 21.9746 11.4403 22.2832 13.8325 21.7355M5.67194 2.77077V5.97483M5.67194 2.77077H2.1135" stroke="white" stroke-width="2" stroke-linecap="round" stroke-linejoin="round"/>
<path d="M12.0535 5.97485L8.18799 11.4991H14.8145L10.949 17.0233" stroke="white" stroke-width="2" stroke-linecap="round" stroke-linejoin="round"/>
</svg>
