<svg width="28" height="26" viewBox="0 0 28 26" fill="none" xmlns="http://www.w3.org/2000/svg">
<path d="M27.9201 23.4751L22.443 17.8793C22.9773 16.5144 22.7101 14.7402 21.5078 13.6483C20.3055 12.4199 18.5689 12.147 17.0994 12.8294L19.6376 15.4226L17.7673 17.3333L15.0956 14.6037C14.4276 16.105 14.6948 17.8793 15.8971 19.2441C17.0994 20.4724 18.7025 20.7454 20.0384 20.1995L25.5155 25.7953C25.7827 26.0682 26.1834 26.0682 26.317 25.7953L27.6529 24.4304C28.0537 24.021 28.0537 23.6115 27.9201 23.4751ZM10.6871 10.9186C13.6261 10.9186 16.0307 8.46194 16.0307 5.45932C16.0307 2.45669 13.6261 0 10.6871 0C7.74816 0 5.34356 2.45669 5.34356 5.45932C5.34356 8.46194 7.74816 10.9186 10.6871 10.9186ZM10.6871 2.72966C12.1566 2.72966 13.3589 3.95801 13.3589 5.45932C13.3589 6.96063 12.1566 8.18898 10.6871 8.18898C9.21764 8.18898 8.01534 6.96063 8.01534 5.45932C8.01534 3.95801 9.21764 2.72966 10.6871 2.72966ZM14.6948 21.8373H0V17.7428C0 14.0577 7.08022 12.2835 10.6871 12.2835C11.3551 12.2835 12.2902 12.4199 13.2253 12.5564C12.691 13.2388 12.4238 14.0577 12.1566 15.0131C11.6222 15.0131 11.2215 14.8766 10.6871 14.8766C6.67945 14.8766 2.53819 16.9239 2.53819 17.7428V19.2441H12.691C13.0917 20.336 13.8933 21.1549 14.6948 21.8373Z" fill="white"/>
</svg>
