<svg width="28" height="28" viewBox="0 0 28 28" fill="none" xmlns="http://www.w3.org/2000/svg">
<path d="M17.1471 7.34872C16.9334 7.56677 16.8137 7.85993 16.8137 8.16526C16.8137 8.47059 16.9334 8.76374 17.1471 8.98179L19.0135 10.8482C19.2316 11.0619 19.5247 11.1816 19.83 11.1816C20.1354 11.1816 20.4285 11.0619 20.6466 10.8482L25.0442 6.45053C25.6308 7.74671 25.8084 9.19086 25.5533 10.5905C25.2983 11.9902 24.6228 13.2789 23.6168 14.2849C22.6108 15.2909 21.322 15.9665 19.9224 16.2215C18.5227 16.4765 17.0785 16.2989 15.7824 15.7124L7.722 23.7727C7.25794 24.2368 6.62855 24.4975 5.97228 24.4975C5.31601 24.4975 4.68661 24.2368 4.22256 23.7727C3.75851 23.3087 3.4978 22.6793 3.4978 22.023C3.4978 21.3668 3.75851 20.7374 4.22256 20.2733L12.2829 12.2129C11.6964 10.9168 11.5188 9.47261 11.7738 8.07294C12.0288 6.67326 12.7044 5.38455 13.7104 4.37854C14.7164 3.37253 16.0051 2.697 17.4048 2.44198C18.8044 2.18695 20.2486 2.36455 21.5448 2.9511L17.1588 7.33706L17.1471 7.34872Z" stroke="#0E2A47" stroke-width="2.33296" stroke-linecap="round" stroke-linejoin="round"/>
</svg>
